# xmcd CD database file
#
# Track frame offsets:
#	150
#	28727
#	51509
#	75903
#	93965
#	115342
#	139656
#	159679
#	185353
#	203950
#	223252
#	247844
#
# Disc length: 3484 seconds
#
# Revision: 0
# Processed by: cddbd v1.5.1PL0 Copyright (c) Steve Scherf et al.
# Submitted via: CDex 1.51
#
DISCID=a40d9a0c
DTITLE=Llewellyn and Juliana - Earth Angel
DYEAR=2004
DGENRE=New Age
TTITLE0=Earth Angel
TTITLE1=In My Dreams
TTITLE2=Star Angel
TTITLE3=Girl With No Name
TTITLE4=Ghost
TTITLE5=Just For Today
TTITLE6=She Moved Through The Fair
TTITLE7=Flying
TTITLE8=Home Take Me Home
TTITLE9=Swimming With Dolphins
TTITLE10=Life Inside Of Me
TTITLE11=Llewellyn and Juliana - Earth Angel - 12 - Angel Prayer
EXTD=YEAR: 2004
EXTT0=
EXTT1=
EXTT2=
EXTT3=
EXTT4=
EXTT5=
EXTT6=
EXTT7=
EXTT8=
EXTT9=
EXTT10=
EXTT11=
PLAYORDER=
